HIERARCHY
ROOT Hips
{
	OFFSET -0.001795 -0.223333 0.028219
	CHANNELS 6 Xposition Yposition Zposition Zrotation Yrotation Xrotation 
	JOINT LeftUpLeg
	{
		OFFSET 0.069520 -0.091406 -0.006815
		CHANNELS 3 Zrotation Yrotation Xrotation
		JOINT LeftLeg
		{
			OFFSET 0.034277 -0.375199 -0.004496
			CHANNELS 3 Zrotation Yrotation Xrotation
			JOINT LeftFoot
			{
				OFFSET -0.013596 -0.397961 -0.043693
				CHANNELS 3 Zrotation Yrotation Xrotation
				JOINT LeftToe
				{
					OFFSET 0.026358 -0.055791 0.119288
					CHANNELS 3 Zrotation Yrotation Xrotation
					End Site
					{
						OFFSET 0.000000 0.000000 0.000000
					}
				}
			}
		}
	}
	JOINT RightUpLeg
	{
		OFFSET -0.067670 -0.090522 -0.004320
		CHANNELS 3 Zrotation Yrotation Xrotation
		JOINT RightLeg
		{
			OFFSET -0.038290 -0.382569 -0.008850
			CHANNELS 3 Zrotation Yrotation Xrotation
			JOINT RightFoot
			{
				OFFSET 0.015774 -0.398415 -0.042312
				CHANNELS 3 Zrotation Yrotation Xrotation
				JOINT RightToe
				{
					OFFSET -0.025372 -0.048144 0.123348
					CHANNELS 3 Zrotation Yrotation Xrotation
					End Site
					{
						OFFSET 0.000000 0.000000 0.000000
					}
				}
			}
		}
	}
	JOINT Spine
	{
		OFFSET -0.002533 0.108963 -0.026696
		CHANNELS 3 Zrotation Yrotation Xrotation
		JOINT Spine1
		{
			OFFSET 0.005487 0.135180 0.001092
			CHANNELS 3 Zrotation Yrotation Xrotation
			JOINT Spine2
			{
				OFFSET 0.001457 0.052922 0.025425
				CHANNELS 3 Zrotation Yrotation Xrotation
				JOINT Neck
				{
					OFFSET -0.002778 0.213870 -0.042857
					CHANNELS 3 Zrotation Yrotation Xrotation
					JOINT Head
					{
						OFFSET 0.005152 0.064970 0.051349
						CHANNELS 3 Zrotation Yrotation Xrotation
						End Site
						{
							OFFSET 0.000000 0.000000 0.000000
						}
					}
				}
				JOINT LeftShoulder
				{
					OFFSET 0.078845 0.121749 -0.034090
					CHANNELS 3 Zrotation Yrotation Xrotation
					JOINT LeftArm
					{
						OFFSET 0.090977 0.030469 -0.008868
						CHANNELS 3 Zrotation Yrotation Xrotation
						JOINT LeftForeArm
						{
							OFFSET 0.259612 -0.012772 -0.027456
							CHANNELS 3 Zrotation Yrotation Xrotation
							JOINT LeftHand
							{
								OFFSET 0.249234 0.008986 -0.001171
								CHANNELS 3 Zrotation Yrotation Xrotation
								End Site
								{
									OFFSET 0.000000 0.000000 0.000000
								}
							}
						}
					}
				}
				JOINT RightShoulder
				{
					OFFSET -0.081759 0.118833 -0.038615
					CHANNELS 3 Zrotation Yrotation Xrotation
					JOINT RightArm
					{
						OFFSET -0.096012 0.032551 -0.009143
						CHANNELS 3 Zrotation Yrotation Xrotation
						JOINT RightForeArm
						{
							OFFSET -0.253742 -0.013329 -0.021401
							CHANNELS 3 Zrotation Yrotation Xrotation
							JOINT RightHand
							{
								OFFSET -0.255298 0.007772 -0.005559
								CHANNELS 3 Zrotation Yrotation Xrotation
								End Site
								{
									OFFSET 0.000000 0.000000 0.000000
								}
							}
						}
					}
				}
			}
		}
	}
}
MOTION
Frames: 17
Frame Time: 0.050000
0.055702 0.962220 -0.004431 -6.356902 20.608216 9.074103 10.284942 -1.093124 -14.153355 -3.612420 0.179513 2.003833 10.144502 22.454615 20.307120 0.000000 0.000000 0.000000 -6.717859 0.112051 -17.934210 3.127349 -0.554535 5.678926 -4.544467 -10.734116 17.292997 0.000000 0.000000 0.000000 3.687111 -0.746083 7.023990 -5.470344 2.233167 -21.223395 -0.173731 13.403754 27.732837 16.444145 -2.778837 -30.754308 0.000000 0.000000 0.000000 -6.917153 -17.768535 3.401553 -54.937276 -3.554612 -7.815837 -46.347339 -40.278339 14.563576 0.000000 0.000000 0.000000 19.751988 10.423100 11.895594 72.162257 22.472116 7.103524 69.029095 30.559081 31.228338 0.000000 0.000000 0.000000 
0.053587 0.960964 -0.000273 -6.438608 21.778995 8.632331 10.699323 -1.113842 -13.979371 -3.835145 0.162849 3.202738 9.877839 22.158128 19.774808 0.000000 0.000000 0.000000 -6.086170 0.171271 -17.680324 2.697877 -0.496406 6.066352 -4.457052 -10.377530 18.113985 0.000000 0.000000 0.000000 3.252276 -0.651345 6.537684 -5.522651 2.303890 -20.470896 0.028254 12.963927 27.962949 16.385223 -2.335332 -32.441693 0.000000 0.000000 0.000000 -7.948047 -16.766126 2.698446 -52.854468 -1.164327 -8.139232 -49.307297 -40.141066 15.286071 0.000000 0.000000 0.000000 19.311967 10.294528 11.728508 71.767418 22.015064 6.769087 70.472168 30.115343 31.853375 0.000000 0.000000 0.000000 
0.050802 0.959827 0.003124 -7.036498 21.774713 8.209343 11.534085 -1.095251 -13.884881 -3.728544 0.149584 3.542539 10.360340 22.720598 20.188276 0.000000 0.000000 0.000000 -5.987810 0.188001 -17.818306 3.836919 -0.779807 7.037145 -5.241461 -11.765679 18.035378 0.000000 0.000000 0.000000 3.361490 -0.655741 6.480679 -5.260984 2.244435 -20.436235 0.279685 14.088596 28.695168 16.487980 -1.995031 -33.481839 0.000000 0.000000 0.000000 -7.682025 -15.615019 2.111579 -52.308908 -0.210675 -8.465232 -53.091891 -39.146427 15.612104 0.000000 0.000000 0.000000 17.710064 10.041155 11.208603 71.678689 22.905917 7.865574 71.995557 31.121979 33.968199 0.000000 0.000000 0.000000 
0.047599 0.960486 0.006014 -7.249543 21.535740 8.166228 12.101242 -1.065047 -13.235243 -3.282394 0.126696 3.105427 10.530460 22.861018 20.227608 0.000000 0.000000 0.000000 -6.136462 0.174664 -17.879144 3.961505 -0.788651 6.719101 -6.124374 -13.288398 18.990909 0.000000 0.000000 0.000000 3.498664 -0.676195 6.543076 -5.246665 2.218551 -20.762022 1.004479 15.428944 29.080380 15.941928 -1.199224 -35.121578 0.000000 0.000000 0.000000 -7.184115 -14.258658 1.518970 -52.707091 0.429094 -8.935734 -56.572874 -38.743957 16.026865 0.000000 0.000000 0.000000 16.081895 9.783235 10.615668 72.311721 23.617488 9.186439 72.141760 31.663783 34.720702 0.000000 0.000000 0.000000 
0.043637 0.960659 0.008625 -6.847853 21.966632 8.670517 11.666560 -1.097046 -13.455183 -2.698527 0.072968 3.243167 10.305267 22.636232 20.036679 0.000000 0.000000 0.000000 -5.760356 0.210178 -18.460109 3.100290 -0.592836 6.349458 -6.998288 -14.668314 18.829408 0.000000 0.000000 0.000000 4.252159 -0.728854 6.204388 -6.133500 2.371332 -21.488565 1.630003 16.045627 29.625297 15.602358 -0.760618 -35.764753 0.000000 0.000000 0.000000 -7.201102 -13.540950 1.090517 -52.873600 1.384429 -9.454089 -59.989148 -38.647651 16.785392 0.000000 0.000000 0.000000 14.360018 9.933746 10.154035 73.302379 24.162575 10.564880 73.130939 32.802457 36.506262 0.000000 0.000000 0.000000 
0.038428 0.960003 0.010920 -6.429862 22.835221 9.294162 11.711916 -1.140332 -13.337006 -2.608711 0.068615 2.870675 9.725040 21.981606 19.507599 0.000000 0.000000 0.000000 -5.597045 0.189780 -18.683822 2.383185 -0.408926 4.458683 -7.826259 -15.756925 20.026244 0.000000 0.000000 0.000000 5.357412 -0.865745 6.237080 -6.183822 2.366327 -21.812487 0.981151 17.798372 28.937678 17.183189 -1.140843 -36.291203 0.000000 0.000000 0.000000 -6.289040 -13.257562 0.947318 -53.309246 1.488685 -9.782096 -62.163523 -38.409751 16.556505 0.000000 0.000000 0.000000 14.747356 9.317433 10.374221 73.344714 26.141496 12.403274 74.476595 33.506888 38.249608 0.000000 0.000000 0.000000 
0.031446 0.959235 0.012299 -5.547939 23.903625 10.466664 11.615174 -1.225827 -13.942668 -2.591369 0.062592 2.711474 10.003013 22.473014 20.381596 0.000000 0.000000 0.000000 -5.290568 0.190521 -18.881384 1.430290 -0.219364 2.315219 -7.718194 -15.327600 20.193407 0.000000 0.000000 0.000000 5.946134 -0.935475 6.050440 -7.168503 2.616262 -21.138136 0.998892 17.915376 27.554539 17.530209 -1.034641 -37.338311 0.000000 0.000000 0.000000 -5.492545 -13.513697 1.243752 -54.695096 1.135540 -10.190441 -61.295798 -40.033886 17.135759 0.000000 0.000000 0.000000 14.864972 9.972511 10.914726 74.074097 28.677694 14.777549 75.806935 35.016535 40.441866 0.000000 0.000000 0.000000 
0.022503 0.957850 0.012638 -4.535002 26.037681 11.457847 11.537220 -1.384950 -15.253003 -2.302723 0.024198 2.758709 9.206706 21.842021 20.728671 0.000000 0.000000 0.000000 -5.316532 0.102073 -18.294803 1.243855 -0.205918 0.610509 -8.638767 -16.421267 20.476287 0.000000 0.000000 0.000000 6.217586 -1.036453 6.382402 -7.344503 2.586469 -22.032488 1.034907 17.222323 27.346953 19.002999 -1.624186 -37.751718 0.000000 0.000000 0.000000 -4.989975 -14.492712 1.691853 -55.230677 0.099698 -10.046936 -59.734517 -40.936183 17.028379 0.000000 0.000000 0.000000 14.732204 10.566550 11.344381 75.558146 30.787350 17.281631 76.364281 37.020866 42.693623 0.000000 0.000000 0.000000 
0.012083 0.957378 0.012110 -3.951229 27.457297 12.341151 11.753057 -1.486779 -15.769570 -2.413061 0.040130 2.076067 9.172796 21.908232 20.700168 0.000000 0.000000 0.000000 -5.213203 0.024094 -18.846797 1.308619 -0.223443 0.619074 -8.986901 -16.912356 19.418478 0.000000 0.000000 0.000000 5.920171 -0.991045 6.179768 -6.897026 2.507858 -21.935481 1.110585 16.703284 26.399986 18.916294 -1.480147 -38.016040 0.000000 0.000000 0.000000 -3.846597 -13.710442 1.783917 -56.507867 -1.611707 -9.964481 -57.281813 -41.200055 16.285713 0.000000 0.000000 0.000000 14.955550 10.854834 11.734846 77.863232 32.583357 19.902428 74.039007 38.766714 42.609704 0.000000 0.000000 0.000000 
0.001018 0.956666 0.010976 -3.358499 29.182173 13.405642 12.522826 -1.637245 -16.686208 -2.727900 0.058736 1.423042 9.038511 22.023758 21.702366 0.000000 0.000000 0.000000 -5.367692 -0.155141 -19.903109 2.048037 -0.358920 0.584487 -9.748740 -18.125328 18.430917 0.000000 0.000000 0.000000 5.635190 -0.909516 5.583042 -6.296589 2.333998 -22.627584 1.252907 15.689196 26.661557 18.635451 -1.342156 -37.934852 0.000000 0.000000 0.000000 -2.233357 -14.145451 2.484772 -57.286962 -3.691462 -9.736944 -54.208625 -41.957952 15.673268 0.000000 0.000000 0.000000 14.227563 12.032257 12.151632 80.726317 34.405067 23.184837 70.671865 42.042564 42.917425 0.000000 0.000000 0.000000 
-0.009254 0.955977 0.009321 -3.609713 29.360194 13.792239 13.743840 -1.697612 -17.180683 -3.061182 0.075552 1.290700 9.552968 22.686826 22.639236 0.000000 0.000000 0.000000 -5.047337 -0.124023 -20.409661 2.593098 -0.452366 0.160913 -9.756452 -18.152887 18.271499 0.000000 0.000000 0.000000 5.969284 -0.952072 5.498354 -5.914529 2.229204 -22.987647 1.233076 15.829370 26.302690 19.144784 -1.594844 -37.747754 0.000000 0.000000 0.000000 -1.039838 -14.651847 3.032647 -57.337755 -5.208074 -9.326536 -52.141740 -42.660218 15.219108 0.000000 0.000000 0.000000 13.865653 12.755656 12.484626 83.701919 36.275281 26.786259 65.382398 44.007725 40.567262 0.000000 0.000000 0.000000 
-0.017590 0.954401 0.006871 -3.616535 30.274868 14.090349 14.755336 -1.782902 -17.434040 -4.153777 0.109589 1.100817 9.951579 23.143360 22.783128 0.000000 0.000000 0.000000 -4.823041 -0.167141 -21.006963 3.144988 -0.559453 0.404572 -10.386119 -19.161961 18.074186 0.000000 0.000000 0.000000 6.007636 -0.918050 5.072508 -5.593292 2.143777 -23.347329 1.684825 15.235925 26.378603 18.790895 -1.378790 -37.959356 0.000000 0.000000 0.000000 -0.621503 -15.267021 3.358721 -57.055878 -6.692344 -8.671148 -48.676285 -42.768390 14.085228 0.000000 0.000000 0.000000 13.569594 13.454807 12.774491 84.635230 37.679601 28.690640 61.607921 45.435747 38.963652 0.000000 0.000000 0.000000 
-0.023626 0.952796 0.003523 -3.658274 30.095484 13.662337 15.338624 -1.755742 -16.845635 -4.704247 0.129869 1.302358 10.825548 24.046734 23.921785 0.000000 0.000000 0.000000 -4.721729 -0.134986 -20.979814 3.189144 -0.565580 0.351974 -10.740396 -19.680812 18.594831 0.000000 0.000000 0.000000 6.419809 -0.950520 4.962383 -5.371832 2.083992 -23.623734 1.905319 15.445395 26.809921 19.119302 -1.553442 -37.792309 0.000000 0.000000 0.000000 -1.186523 -16.313651 3.481644 -55.757057 -8.145511 -7.519349 -43.433963 -43.263213 12.459505 0.000000 0.000000 0.000000 14.118657 13.947867 13.367878 85.076579 39.124799 30.024468 56.891631 45.688315 35.876311 0.000000 0.000000 0.000000 
-0.027559 0.951252 -0.000574 -3.608661 30.289104 13.506205 15.681521 -1.762727 -16.493521 -4.719235 0.127882 1.419090 10.704041 23.906304 24.083114 0.000000 0.000000 0.000000 -4.888866 -0.176840 -20.896079 3.502301 -0.623021 0.260139 -10.909565 -20.056118 18.217226 0.000000 0.000000 0.000000 6.667841 -0.957747 4.755412 -5.069903 1.996940 -24.049471 1.970533 14.924745 27.043483 18.927875 -1.633587 -37.123869 0.000000 0.000000 0.000000 -1.939704 -17.007595 3.491446 -55.598407 -8.900679 -6.944368 -38.018555 -43.234610 10.760685 0.000000 0.000000 0.000000 15.190267 14.002669 13.886073 84.157868 39.355988 29.086288 54.751018 44.502170 33.640442 0.000000 0.000000 0.000000 
-0.030293 0.950966 -0.004748 -3.397399 30.823416 13.463122 15.687217 -1.772245 -15.729834 -4.513210 0.115221 0.667952 10.396420 23.593770 24.431421 0.000000 0.000000 0.000000 -5.202167 -0.267363 -20.660641 3.524092 -0.624396 -0.250936 -11.344216 -20.550320 18.858006 0.000000 0.000000 0.000000 6.894251 -0.913875 4.138454 -4.877483 1.990787 -23.694972 1.942583 14.651931 26.960984 18.750693 -1.586151 -36.764897 0.000000 0.000000 0.000000 -2.942044 -17.690886 3.373342 -55.672041 -10.125987 -6.177504 -31.470987 -42.456993 8.434864 0.000000 0.000000 0.000000 16.035314 13.432410 14.006352 82.777637 39.061120 27.650849 53.161579 43.480163 31.904770 0.000000 0.000000 0.000000 
-0.032379 0.951170 -0.008531 -3.066086 30.887820 13.468757 15.822655 -1.770269 -15.158030 -4.615892 0.115407 0.590067 10.204594 23.366865 24.598575 0.000000 0.000000 0.000000 -5.586784 -0.331759 -20.319099 3.652295 -0.640823 -0.765368 -11.558713 -20.855645 19.084239 0.000000 0.000000 0.000000 7.122032 -0.860695 3.435180 -4.877443 2.007886 -23.447168 1.748685 14.123282 26.851544 18.307750 -1.714639 -35.239816 0.000000 0.000000 0.000000 -3.571538 -17.684501 3.241766 -55.514942 -10.497336 -5.823890 -27.764884 -42.126720 7.285644 0.000000 0.000000 0.000000 16.647246 13.085711 13.961509 81.333866 37.974888 25.506553 52.685538 42.514406 30.814207 0.000000 0.000000 0.000000 
-0.034195 0.951964 -0.011964 -2.853126 30.773466 13.355776 15.497556 -1.724345 -14.013070 -4.569394 0.113215 0.227935 9.806010 22.814066 23.689077 0.000000 0.000000 0.000000 -5.755080 -0.338374 -19.938847 3.447256 -0.599542 -1.410016 -11.226830 -20.317946 19.028399 0.000000 0.000000 0.000000 7.188771 -0.837208 3.209811 -4.899201 1.986597 -23.784844 1.740466 14.000002 27.031137 17.889451 -1.588698 -34.847997 0.000000 0.000000 0.000000 -3.722179 -17.553157 3.166094 -56.326961 -10.308733 -6.083188 -25.209316 -41.484805 6.419387 0.000000 0.000000 0.000000 17.083410 12.245529 13.648811 80.125513 36.062353 22.967820 52.979974 41.495025 30.356042 0.000000 0.000000 0.000000 
